# This file uses centimeters as units for non-parametric coordinates.

mtllib ZapPrefab.mtl
g default
v 0.461940 -0.500000 -0.191341
v 0.353554 -0.500000 -0.353553
v 0.191342 -0.500000 -0.461940
v 0.000000 -0.500000 -0.500000
v -0.191341 -0.500000 -0.461940
v -0.353553 -0.500000 -0.353554
v -0.461940 -0.500000 -0.191342
v -0.500000 -0.500000 -0.000000
v -0.461940 -0.500000 0.191342
v -0.353553 -0.500000 0.353553
v -0.191342 -0.500000 0.461940
v -0.000000 -0.500000 0.500000
v 0.191342 -0.500000 0.461940
v 0.353553 -0.500000 0.353553
v 0.461940 -0.500000 0.191342
v 0.500000 -0.500000 0.000000
v 0.461940 0.500000 -0.191341
v 0.353554 0.500000 -0.353553
v 0.191342 0.500000 -0.461940
v 0.000000 0.500000 -0.500000
v -0.191341 0.500000 -0.461940
v -0.353553 0.500000 -0.353554
v -0.461940 0.500000 -0.191342
v -0.500000 0.500000 -0.000000
v -0.461940 0.500000 0.191342
v -0.353553 0.500000 0.353553
v -0.191342 0.500000 0.461940
v -0.000000 0.500000 0.500000
v 0.191342 0.500000 0.461940
v 0.353553 0.500000 0.353553
v 0.461940 0.500000 0.191342
v 0.500000 0.500000 0.000000
vt 0.621752 0.501891
vt 0.716680 0.501891
vt 0.716680 0.998008
vt 0.621752 0.998008
vt 0.811608 0.501891
vt 0.811608 0.998008
vt 0.541276 0.501891
vt 0.541276 0.998008
vt 0.892084 0.501891
vt 0.892084 0.998008
vt 0.487504 0.501891
vt 0.487504 0.998008
vt 0.945856 0.501891
vt 0.945856 0.998008
vt 0.136136 0.001992
vt 0.231064 0.001992
vt 0.231064 0.498109
vt 0.136136 0.498109
vt 0.325992 0.001992
vt 0.325992 0.498109
vt 0.055660 0.001992
vt 0.055660 0.498109
vt 0.406467 0.001992
vt 0.406467 0.498109
vt 0.001888 0.001992
vt 0.001888 0.498109
vt 0.460240 0.001992
vt 0.460240 0.498109
vt 0.657399 0.498109
vt 0.562472 0.498109
vt 0.562472 0.001992
vt 0.657399 0.001992
vt 0.467544 0.498109
vt 0.467544 0.001992
vt 0.291834 0.501891
vt 0.386762 0.501891
vt 0.386762 0.998008
vt 0.291834 0.998008
vt 0.481690 0.501891
vt 0.481690 0.998008
vn 0.923880 0.000000 -0.382683
vn 0.707107 0.000000 -0.707107
vn 0.707107 0.000000 -0.707107
vn 0.923880 0.000000 -0.382683
vn 0.382684 0.000000 -0.923879
vn 0.382684 0.000000 -0.923879
vn 0.000001 0.000000 -1.000000
vn 0.000001 0.000000 -1.000000
vn -0.382683 0.000000 -0.923880
vn -0.382683 0.000000 -0.923880
vn -0.707106 0.000000 -0.707107
vn -0.707106 0.000000 -0.707107
vn -0.923879 0.000000 -0.382684
vn -0.923879 0.000000 -0.382684
vn -1.000000 0.000000 -0.000000
vn -1.000000 0.000000 -0.000000
vn -0.923880 0.000000 0.382683
vn -0.923880 0.000000 0.382683
vn -0.707107 0.000000 0.707107
vn -0.707107 0.000000 0.707107
vn -0.382684 0.000000 0.923879
vn -0.382684 0.000000 0.923879
vn -0.000000 0.000000 1.000000
vn -0.000000 0.000000 1.000000
vn 0.382683 0.000000 0.923880
vn 0.382683 0.000000 0.923880
vn 0.707107 0.000000 0.707107
vn 0.707107 0.000000 0.707107
vn 0.923880 0.000000 0.382684
vn 0.923880 0.000000 0.382684
vn 1.000000 0.000000 0.000000
vn 1.000000 0.000000 0.000000
s 1
g ZapperPref
usemtl lambert12SG
f 1/19/1 2/23/2 18/24/3 17/20/4
f 2/23/2 3/27/5 19/28/6 18/24/3
f 3/29/5 4/30/7 20/31/8 19/32/6
f 4/30/7 5/33/9 21/34/10 20/31/8
f 5/11/9 6/7/11 22/8/12 21/12/10
f 6/7/11 7/1/13 23/4/14 22/8/12
f 7/1/13 8/2/15 24/3/16 23/4/14
f 8/2/15 9/5/17 25/6/18 24/3/16
f 9/5/17 10/9/19 26/10/20 25/6/18
f 10/9/19 11/13/21 27/14/22 26/10/20
f 11/35/21 12/36/23 28/37/24 27/38/22
f 12/36/23 13/39/25 29/40/26 28/37/24
f 13/25/25 14/21/27 30/22/28 29/26/26
f 14/21/27 15/15/29 31/18/30 30/22/28
f 15/15/29 16/16/31 32/17/32 31/18/30
f 16/16/31 1/19/1 17/20/4 32/17/32
