# This file uses centimeters as units for non-parametric coordinates.

mtllib BoostPad.mtl
g default
v 0.440136 -0.500000 -0.500000
v -0.478955 -0.500000 -0.500000
v 0.500000 0.500000 -0.500000
v -0.500000 0.594740 -0.500000
v 0.500000 0.500000 0.500000
v -0.500000 0.594740 0.500000
v 0.440136 -0.500000 0.500000
v -0.478955 -0.500000 0.500000
v -0.400000 -0.500000 -0.500000
v -0.400000 -0.500000 0.500000
v -0.327594 0.500000 0.500000
v -0.327594 0.500000 -0.500000
v -0.425266 -2.000000 -0.500000
v -0.425266 -2.000000 0.500000
v -0.432644 -2.000000 0.500000
v -0.432644 -2.000000 -0.500000
vt 0.500384 0.365430
vt 0.742676 0.365430
vt 0.742676 0.630676
vt 0.500384 0.630676
vt 0.500384 0.001992
vt 0.742676 0.001992
vt 0.227198 0.634571
vt 0.469490 0.634571
vt 0.469490 0.876862
vt 0.227198 0.876862
vt 0.973821 0.998008
vt 0.731529 0.998008
vt 0.731529 0.634571
vt 0.973821 0.634571
vt 0.725542 0.676343
vt 0.483251 0.676343
vt 0.483251 0.634571
vt 0.725542 0.634571
vt 0.483251 0.876863
vt 0.725542 0.876863
vt 0.475476 0.876863
vt 0.475476 0.634571
vt 0.477264 0.634571
vt 0.477264 0.876863
vt 0.017653 0.634571
vt 0.221211 0.634571
vt 0.221211 0.876862
vt 0.017653 0.876862
vt 0.202463 0.607721
vt 0.220006 0.365430
vt 0.239136 0.365430
vt 0.244235 0.630676
vt 0.016448 0.365430
vt 0.001944 0.607721
vt 0.226128 0.001992
vt 0.227916 0.001992
vt 0.469322 0.267238
vt 0.451778 0.024947
vt 0.493551 0.001992
vt 0.488452 0.267238
vt 0.251259 0.024947
vt 0.265764 0.267238
vt 0.477231 0.630676
vt 0.475443 0.630676
vn -0.000000 0.000000 -1.000000
vn -0.000000 0.000000 -1.000000
vn -0.000000 0.000000 -1.000000
vn -0.000000 0.000000 -1.000000
vn 0.094318 0.995542 0.000000
vn 0.094318 0.995542 0.000000
vn 0.481595 0.876394 0.000000
vn 0.481595 0.876394 0.000000
vn -0.000000 0.000000 1.000000
vn -0.000000 0.000000 1.000000
vn -0.000000 0.000000 1.000000
vn -0.000000 0.000000 1.000000
vn 0.000000 -1.000000 0.000000
vn 0.000000 -1.000000 0.000000
vn 0.000000 -1.000000 0.000000
vn 0.000000 -1.000000 0.000000
vn -0.999815 -0.019220 -0.000000
vn -0.999815 -0.019220 -0.000000
vn -0.999815 -0.019220 -0.000000
vn -0.999815 -0.019220 -0.000000
vn 0.998213 -0.059757 0.000000
vn 0.998213 -0.059757 0.000000
vn 0.998213 -0.059757 0.000000
vn 0.998213 -0.059757 0.000000
vn 0.000000 -1.000000 0.000000
vn 0.000000 -1.000000 0.000000
vn 0.000000 -1.000000 0.000000
vn 0.000000 -1.000000 0.000000
vn -0.000000 0.000000 1.000000
vn -0.000000 0.000000 1.000000
vn 0.000000 1.000000 -0.000000
vn 0.000000 1.000000 -0.000000
vn 0.000000 0.000000 -1.000000
vn 0.000000 0.000000 -1.000000
vn 0.999858 -0.016841 0.000000
vn 0.999858 -0.016841 0.000000
vn 0.999858 -0.016841 0.000000
vn 0.999858 -0.016841 0.000000
vn -0.000000 0.000000 1.000000
vn -0.000000 0.000000 1.000000
vn -0.000000 0.000000 1.000000
vn -0.000000 0.000000 1.000000
vn -0.999524 -0.030859 -0.000000
vn -0.999524 -0.030859 -0.000000
vn -0.999524 -0.030859 -0.000000
vn -0.999524 -0.030859 -0.000000
vn 0.000000 0.000000 -1.000000
vn 0.000000 0.000000 -1.000000
vn 0.000000 0.000000 -1.000000
vn 0.000000 0.000000 -1.000000
s 1
g BoostPad
usemtl initialShadingGroup
f 12/29/1 9/30/2 2/31/3 4/32/4
s 2
f 11/15/5 12/16/6 4/17/7 6/18/8
s 3
f 10/37/9 11/38/10 6/39/11 8/40/12
s off
f 13/21/13 14/22/14 15/23/15 16/24/16
f 2/1/17 8/2/18 6/3/19 4/4/20
f 7/7/21 1/8/22 3/9/23 5/10/24
f 7/25/25 10/26/26 9/27/27 1/28/28
s 3
f 5/41/29 11/38/10 10/37/9 7/42/30
s 2
f 3/19/31 12/16/6 11/15/5 5/20/32
s 1
f 1/33/33 9/30/2 12/29/1 3/34/34
s off
f 9/11/35 10/12/36 14/13/37 13/14/38
f 10/37/39 8/40/40 15/43/41 14/44/42
f 8/2/43 2/1/44 16/5/45 15/6/46
f 2/31/47 9/30/48 13/35/49 16/36/50
