# This file uses centimeters as units for non-parametric coordinates.

mtllib MovingPlatform2.mtl
g default
v -0.367239 -0.450000 0.300000
v -0.385964 -0.187062 0.292076
v -0.385964 0.187062 0.292076
v -0.367239 0.450000 0.300000
v 0.385964 -0.187062 0.292076
v 0.367239 -0.450000 0.300000
v 0.367239 0.450000 0.300000
v 0.385964 0.187062 0.292076
v -0.514228 0.450000 0.000000
v -0.534701 0.198570 0.000000
v 0.514228 0.450000 0.000000
v 0.534701 0.198570 0.000000
v -0.386127 0.180078 -0.291757
v -0.366924 0.450000 -0.300000
v 0.366924 0.450000 -0.300000
v 0.386127 0.180078 -0.291757
v -0.385964 -0.187062 -0.292076
v -0.367239 -0.450000 -0.300000
v 0.367239 -0.450000 -0.300000
v 0.385964 -0.187062 -0.292076
v -0.514228 -0.450000 0.000000
v -0.534701 -0.198570 0.000000
v 0.514228 -0.450000 0.000000
v 0.534701 -0.198570 0.000000
v -0.288557 -0.450000 0.442519
v -0.303271 -0.187062 0.430831
v -0.288557 0.450000 0.442519
v -0.303271 0.187062 0.430831
v 0.303271 -0.187062 0.430831
v 0.288557 -0.450000 0.442519
v 0.303271 0.187062 0.430831
v 0.288557 0.450000 0.442519
v -0.288310 0.450000 -0.442519
v -0.303399 0.180078 -0.430359
v -0.288557 -0.450000 -0.442519
v -0.303271 -0.187062 -0.430831
v 0.303398 0.180078 -0.430359
v 0.288310 0.450000 -0.442519
v 0.303271 -0.187062 -0.430831
v 0.288557 -0.450000 -0.442519
v 0.293791 -0.450000 0.300000
v 0.411383 -0.450000 0.000000
v 0.293791 -0.450000 -0.300000
v 0.293539 0.450000 -0.300000
v 0.411383 0.450000 0.000000
v 0.293791 0.450000 0.300000
v -0.301136 -0.450000 0.300000
v -0.421667 -0.450000 0.000000
v -0.301136 -0.450000 -0.300000
v -0.300878 0.450000 -0.300000
v -0.421667 0.450000 0.000000
v -0.301136 0.450000 0.300000
v -0.268660 -0.450000 0.371259
v -0.268660 0.450000 0.371259
v -0.268430 0.450000 -0.371259
v -0.268660 -0.450000 -0.371259
v 0.264987 -0.450000 -0.371259
v 0.264760 0.450000 -0.371259
v 0.264987 0.450000 0.371259
v 0.264987 -0.450000 0.371259
vt 0.781612 0.879527
vt 0.753325 0.879527
vt 0.753325 0.845931
vt 0.781612 0.845931
vt 0.753325 0.812336
vt 0.781612 0.812336
vt 0.719398 0.812336
vt 0.747686 0.812336
vt 0.747686 0.845931
vt 0.719398 0.845931
vt 0.747686 0.879527
vt 0.719398 0.879527
vt 0.713759 0.879527
vt 0.685472 0.879527
vt 0.685472 0.845931
vt 0.713759 0.845931
vt 0.685472 0.812336
vt 0.713759 0.812336
vt 0.651546 0.812336
vt 0.679833 0.812336
vt 0.679833 0.845931
vt 0.651546 0.845931
vt 0.679833 0.879527
vt 0.651546 0.879527
vt 0.351893 0.682347
vt 0.348158 0.696472
vt 0.210458 0.808667
vt 0.210458 0.793224
vt 0.419084 0.622995
vt 0.413574 0.634094
vt 0.072757 0.696472
vt 0.069022 0.682347
vt 0.210458 0.723403
vt 0.351893 0.632483
vt 0.385489 0.607986
vt 0.007341 0.634094
vt 0.001831 0.622995
vt 0.069022 0.632483
vt 0.210458 0.095014
vt 0.351893 0.183716
vt 0.035426 0.607986
vt 0.069022 0.183716
vt 0.210458 0.017435
vt 0.351893 0.128313
vt 0.069022 0.128313
vt 0.348158 0.114188
vt 0.210458 0.001992
vt 0.419084 0.187664
vt 0.385489 0.205443
vt 0.035426 0.205443
vt 0.001831 0.187664
vt 0.072757 0.114188
vt 0.413574 0.176565
vt 0.007341 0.176565
vt 0.495702 0.696472
vt 0.491966 0.682346
vt 0.633402 0.793224
vt 0.633402 0.808667
vt 0.430285 0.634094
vt 0.424775 0.622995
vt 0.491966 0.632483
vt 0.633402 0.723403
vt 0.774837 0.682109
vt 0.770951 0.696594
vt 0.458371 0.607986
vt 0.491966 0.183716
vt 0.633402 0.095014
vt 0.774837 0.632289
vt 0.842028 0.622809
vt 0.836296 0.634190
vt 0.491966 0.128313
vt 0.633402 0.017435
vt 0.774837 0.183906
vt 0.808433 0.607813
vt 0.458371 0.205443
vt 0.424775 0.187664
vt 0.495702 0.114188
vt 0.633402 0.001992
vt 0.774837 0.128550
vt 0.430285 0.176565
vt 0.770951 0.114065
vt 0.842028 0.187850
vt 0.808433 0.205615
vt 0.836296 0.176469
vt 0.829442 0.823435
vt 0.821178 0.812336
vt 0.849465 0.812336
vt 0.841201 0.823435
vt 0.841201 0.885812
vt 0.829442 0.885812
vt 0.829080 0.998008
vt 0.841562 0.998008
vt 0.787251 0.998008
vt 0.795515 0.986909
vt 0.807274 0.986909
vt 0.815538 0.998008
vt 0.795515 0.924532
vt 0.807274 0.924532
vt 0.795154 0.812336
vt 0.807636 0.812336
vt 0.897514 0.465810
vt 0.889030 0.454428
vt 0.917318 0.454614
vt 0.909053 0.465713
vt 0.909053 0.528091
vt 0.897514 0.528214
vt 0.909415 0.640286
vt 0.896933 0.640286
vt 0.855104 0.640287
vt 0.863588 0.628905
vt 0.875127 0.629001
vt 0.883391 0.640100
vt 0.863588 0.566501
vt 0.875127 0.566624
vt 0.875489 0.454428
vt 0.863007 0.454428
vt 0.877619 0.450759
vt 0.849331 0.450565
vt 0.849331 0.002182
vt 0.877619 0.001992
vt 0.911655 0.450759
vt 0.883367 0.450759
vt 0.883367 0.001992
vt 0.911655 0.001992
vn -0.892467 -0.061126 0.446951
vn -0.892467 -0.061126 0.446951
vn -0.892467 -0.061126 0.446951
vn -0.892467 -0.061126 0.446951
vn -0.621997 0.000000 0.783019
vn -0.621997 0.000000 0.783019
vn -0.621997 0.000000 0.783019
vn -0.621997 0.000000 0.783019
vn -0.892467 0.061126 0.446951
vn -0.892467 0.061126 0.446951
vn -0.892467 0.061126 0.446951
vn -0.892467 0.061126 0.446951
vn 0.892467 -0.061126 0.446951
vn 0.892467 -0.061126 0.446951
vn 0.892467 -0.061126 0.446951
vn 0.892467 -0.061126 0.446951
vn 0.621997 0.000000 0.783020
vn 0.621997 0.000000 0.783020
vn 0.621997 0.000000 0.783020
vn 0.621997 0.000000 0.783020
vn 0.892467 0.061126 0.446951
vn 0.892467 0.061126 0.446951
vn 0.892467 0.061126 0.446951
vn 0.892467 0.061126 0.446951
vn -0.892011 0.060800 -0.447906
vn -0.892011 0.060800 -0.447906
vn -0.892011 0.060800 -0.447906
vn -0.892011 0.060800 -0.447906
vn 0.892011 0.060800 -0.447906
vn 0.892011 0.060800 -0.447906
vn 0.892011 0.060800 -0.447906
vn 0.892011 0.060800 -0.447906
vn -0.624838 0.000349 -0.780754
vn -0.624838 0.000349 -0.780754
vn -0.624838 0.000349 -0.780754
vn -0.624838 0.000349 -0.780754
vn 0.624836 0.000349 -0.780756
vn 0.624836 0.000349 -0.780756
vn 0.624836 0.000349 -0.780756
vn 0.624836 0.000349 -0.780756
vn -0.892467 -0.061126 -0.446951
vn -0.892467 -0.061126 -0.446951
vn -0.892467 -0.061126 -0.446951
vn -0.892467 -0.061126 -0.446951
vn 0.892467 -0.061126 -0.446951
vn 0.892467 -0.061126 -0.446951
vn 0.892467 -0.061126 -0.446951
vn 0.892467 -0.061126 -0.446951
vn 0.000000 1.000000 0.000000
vn 0.000000 1.000000 0.000000
vn 0.000000 1.000000 0.000000
vn 0.000000 1.000000 0.000000
vn 0.000000 1.000000 0.000000
vn 0.000000 1.000000 0.000000
vn 0.000000 1.000000 0.000000
vn 0.000000 1.000000 0.000000
vn 0.000000 -1.000000 0.000000
vn 0.000000 -1.000000 0.000000
vn 0.000000 -1.000000 0.000000
vn 0.000000 -1.000000 0.000000
vn 0.000000 -1.000000 0.000000
vn 0.000000 -1.000000 0.000000
vn 0.000000 -1.000000 0.000000
vn 0.000000 -1.000000 0.000000
vn 0.891110 0.000000 -0.453788
vn 0.891110 0.000000 -0.453788
vn 0.891110 0.000000 -0.453788
vn 0.891110 0.000000 -0.453788
vn 0.891110 0.000000 0.453788
vn 0.891110 0.000000 0.453788
vn 0.891110 0.000000 0.453788
vn 0.891110 0.000000 0.453788
vn -0.891110 -0.000000 -0.453788
vn -0.891110 -0.000000 -0.453788
vn -0.891110 -0.000000 -0.453788
vn -0.891110 -0.000000 -0.453788
vn -0.891110 0.000000 0.453788
vn -0.891110 0.000000 0.453788
vn -0.891110 0.000000 0.453788
vn -0.891110 0.000000 0.453788
vn -0.866802 -0.036571 0.497309
vn -0.866802 -0.036571 0.497309
vn -0.866802 -0.036571 0.497309
vn -0.866802 -0.036571 0.497309
vn -0.866802 0.036571 0.497309
vn -0.866802 0.036571 0.497309
vn -0.866802 0.036571 0.497309
vn -0.866802 0.036571 0.497309
vn -0.859017 0.000000 0.511948
vn -0.859017 0.000000 0.511948
vn -0.859017 0.000000 0.511948
vn -0.859017 0.000000 0.511948
vn 0.866802 -0.036571 0.497310
vn 0.866802 -0.036571 0.497310
vn 0.866802 -0.036571 0.497310
vn 0.866802 -0.036571 0.497310
vn 0.859017 0.000000 0.511948
vn 0.859017 0.000000 0.511948
vn 0.859017 0.000000 0.511948
vn 0.859017 0.000000 0.511948
vn 0.866802 0.036571 0.497310
vn 0.866802 0.036571 0.497310
vn 0.866802 0.036571 0.497310
vn 0.866802 0.036571 0.497310
vn -0.866739 0.036255 -0.497442
vn -0.866739 0.036255 -0.497442
vn -0.866739 0.036255 -0.497442
vn -0.866739 0.036255 -0.497442
vn -0.866802 -0.036571 -0.497310
vn -0.866802 -0.036571 -0.497310
vn -0.866802 -0.036571 -0.497310
vn -0.866802 -0.036571 -0.497310
vn -0.858846 0.000212 -0.512234
vn -0.858846 0.000212 -0.512234
vn -0.858846 0.000212 -0.512234
vn -0.858846 0.000212 -0.512234
vn 0.866739 0.036255 -0.497443
vn 0.866739 0.036255 -0.497443
vn 0.866739 0.036255 -0.497443
vn 0.866739 0.036255 -0.497443
vn 0.858846 0.000212 -0.512234
vn 0.858846 0.000212 -0.512234
vn 0.858846 0.000212 -0.512234
vn 0.858846 0.000212 -0.512234
vn 0.866802 -0.036571 -0.497310
vn 0.866802 -0.036571 -0.497310
vn 0.866802 -0.036571 -0.497310
vn 0.866802 -0.036571 -0.497310
vn 0.000000 -1.000000 0.000000
vn 0.000000 -1.000000 0.000000
vn 0.000000 -1.000000 0.000000
vn 0.000000 -1.000000 0.000000
vn 0.000000 -1.000000 0.000000
vn 0.000000 -1.000000 0.000000
vn 0.000000 -1.000000 0.000000
vn 0.000000 -1.000000 0.000000
vn 0.000000 0.000000 -1.000000
vn 0.000000 0.000000 -1.000000
vn 0.000000 0.000000 -1.000000
vn 0.000000 0.000000 -1.000000
vn 0.000000 1.000000 0.000000
vn 0.000000 1.000000 0.000000
vn 0.000000 1.000000 0.000000
vn 0.000000 1.000000 0.000000
vn 0.000000 1.000000 0.000000
vn 0.000000 1.000000 0.000000
vn 0.000000 1.000000 0.000000
vn 0.000000 1.000000 0.000000
vn 0.000000 0.000000 1.000000
vn 0.000000 0.000000 1.000000
vn 0.000000 0.000000 1.000000
vn 0.000000 0.000000 1.000000
vn 0.000000 -1.000000 0.000000
vn 0.000000 -1.000000 0.000000
vn 0.000000 -1.000000 0.000000
vn 0.000000 -1.000000 0.000000
vn 0.000000 -1.000000 0.000000
vn 0.000000 -1.000000 0.000000
vn 0.000000 -1.000000 0.000000
vn 0.000000 -1.000000 0.000000
vn 0.000000 1.000000 0.000000
vn 0.000000 1.000000 0.000000
vn 0.000000 1.000000 0.000000
vn 0.000000 1.000000 0.000000
vn 0.000000 1.000000 0.000000
vn 0.000000 1.000000 0.000000
vn 0.000000 1.000000 0.000000
vn 0.000000 1.000000 0.000000
vn 0.963158 0.000000 0.268938
vn 0.963158 0.000000 0.268938
vn 0.996128 0.000000 -0.087917
vn 0.996128 0.000000 -0.087917
vn 0.000000 1.000000 0.000000
vn 0.000000 1.000000 0.000000
vn 0.000000 1.000000 0.000000
vn 0.000000 1.000000 0.000000
vn 0.000000 -1.000000 0.000000
vn 0.000000 -1.000000 0.000000
vn 0.000000 -1.000000 0.000000
vn 0.000000 -1.000000 0.000000
vn 0.996128 0.000000 -0.087917
vn 0.996128 0.000000 -0.087917
vn 0.909956 0.000000 -0.414705
vn 0.909956 0.000000 -0.414705
vn 0.963188 -0.000255 -0.268830
vn 0.963188 -0.000255 -0.268830
vn 0.996142 -0.000267 0.087751
vn 0.996120 -0.000267 0.088007
vn 0.000000 1.000000 0.000000
vn 0.000000 1.000000 0.000000
vn 0.000000 1.000000 0.000000
vn 0.000000 1.000000 0.000000
vn 0.000000 -1.000000 0.000000
vn 0.000000 -1.000000 0.000000
vn 0.000000 -1.000000 0.000000
vn 0.000000 -1.000000 0.000000
vn 0.996120 -0.000267 0.088007
vn 0.996142 -0.000267 0.087751
vn 0.910023 -0.000247 0.414558
vn 0.910023 -0.000247 0.414558
vn -0.949453 -0.000250 -0.313908
vn -0.949453 -0.000250 -0.313908
vn -0.999325 -0.000264 0.036736
vn -0.999329 -0.000264 0.036630
vn 0.000000 1.000000 0.000000
vn 0.000000 1.000000 0.000000
vn 0.000000 1.000000 0.000000
vn 0.000000 1.000000 0.000000
vn 0.000000 -1.000000 0.000000
vn 0.000000 -1.000000 0.000000
vn 0.000000 -1.000000 0.000000
vn 0.000000 -1.000000 0.000000
vn -0.999329 -0.000264 0.036630
vn -0.999325 -0.000264 0.036736
vn -0.927181 -0.000246 0.374614
vn -0.927181 -0.000246 0.374614
vn -0.949413 0.000000 0.314028
vn -0.949413 0.000000 0.314028
vn -0.999326 0.000000 -0.036698
vn -0.999326 0.000000 -0.036698
vn 0.000000 1.000000 0.000000
vn 0.000000 1.000000 0.000000
vn 0.000000 1.000000 0.000000
vn 0.000000 1.000000 0.000000
vn 0.000000 -1.000000 0.000000
vn 0.000000 -1.000000 0.000000
vn 0.000000 -1.000000 0.000000
vn 0.000000 -1.000000 0.000000
vn -0.999326 0.000000 -0.036698
vn -0.999326 0.000000 -0.036698
vn -0.927125 0.000000 -0.374751
vn -0.927125 0.000000 -0.374751
s off
g MoverPlatform
usemtl MovingPlatform_lambert2SG
f 1/25/1 2/26/2 22/27/3 21/28/4
f 26/85/5 25/86/6 27/87/7 28/88/8
f 3/55/9 4/56/10 9/57/11 10/58/12
f 5/46/13 6/44/14 23/43/15 24/47/16
f 30/93/17 29/94/18 31/95/19 32/96/20
f 7/71/21 8/77/22 12/78/23 11/72/24
f 10/58/25 9/57/26 14/63/27 13/64/28
f 11/72/29 12/78/30 16/81/31 15/79/32
f 34/101/33 33/102/34 35/103/35 36/104/36
f 38/109/37 37/110/38 39/111/39 40/112/40
f 17/31/41 18/32/42 21/28/43 22/27/44
f 19/45/45 20/52/46 24/47/47 23/43/48
f 45/67/49 46/66/50 7/71/51 11/72/52
f 44/73/53 45/67/54 11/72/55 15/79/56
f 42/39/57 43/42/58 19/45/59 23/43/60
f 41/40/61 42/39/62 23/43/63 6/44/64
f 24/115/65 20/114/66 16/113/67 12/116/68
f 5/97/69 24/99/70 12/100/71 8/98/72
f 17/105/73 22/107/74 10/108/75 13/106/76
f 22/91/77 2/90/78 3/89/79 10/92/80
f 2/26/81 1/25/82 25/29/83 26/30/84
f 4/56/85 3/55/86 28/59/87 27/60/88
f 3/89/89 2/90/90 26/85/91 28/88/92
f 6/44/93 5/46/94 29/53/95 30/48/96
f 5/97/97 8/98/98 31/95/99 29/94/100
f 8/77/101 7/71/102 32/76/103 31/80/104
f 13/64/105 14/63/106 33/69/107 34/70/108
f 18/32/109 17/31/110 36/36/111 35/37/112
f 17/105/113 13/106/114 34/101/115 36/104/116
f 15/79/117 16/81/118 37/84/119 38/82/120
f 16/113/121 20/114/122 39/111/123 37/110/124
f 20/52/125 19/45/126 40/51/127 39/54/128
f 47/34/129 48/33/130 42/39/131 41/40/132
f 48/33/133 49/38/134 43/42/135 42/39/136
f 49/117/137 50/118/138 44/119/139 43/120/140
f 50/68/141 51/62/142 45/67/143 44/73/144
f 51/62/145 52/61/146 46/66/147 45/67/148
f 52/121/149 47/122/150 41/123/151 46/124/152
f 21/28/153 48/33/154 47/34/155 1/25/156
f 18/32/157 49/38/158 48/33/159 21/28/160
f 9/57/161 51/62/162 50/68/163 14/63/164
f 4/56/165 52/61/166 51/62/167 9/57/168
f 27/1/169 25/2/170 53/3/171 54/4/172
f 27/60/173 54/65/174 52/61/175 4/56/176
f 47/34/177 53/35/178 25/29/179 1/25/180
f 54/4/181 53/3/182 47/5/183 52/6/184
f 35/7/185 33/8/186 55/9/187 56/10/188
f 33/69/189 14/63/190 50/68/191 55/74/192
f 35/37/193 56/41/194 49/38/195 18/32/196
f 56/10/197 55/9/198 50/11/199 49/12/200
f 38/13/201 40/14/202 57/15/203 58/16/204
f 44/73/205 15/79/206 38/82/207 58/83/208
f 43/42/209 57/50/210 40/51/211 19/45/212
f 58/16/213 57/15/214 43/17/215 44/18/216
f 30/19/217 32/20/218 59/21/219 60/22/220
f 46/66/221 59/75/222 32/76/223 7/71/224
f 30/48/225 60/49/226 41/40/227 6/44/228
f 60/22/229 59/21/230 46/23/231 41/24/232
