# This file uses centimeters as units for non-parametric coordinates.

mtllib RotatorPlat.mtl
g default
v -0.500000 -0.450000 0.500000
v 0.500000 -0.450000 0.500000
v -0.500000 0.450000 0.500000
v 0.500000 0.450000 0.500000
v -0.500000 0.450000 -0.500000
v 0.500000 0.450000 -0.500000
v -0.500000 -0.450000 -0.500000
v 0.500000 -0.450000 -0.500000
v 0.014142 0.212132 -0.625000
v 0.000000 0.300000 -0.625000
v -0.014142 0.212132 -0.625000
v -0.020000 0.000000 -0.625000
v -0.014142 -0.212132 -0.625000
v 0.000000 -0.300000 -0.625000
v 0.014142 -0.212132 -0.625000
v 0.020000 0.000000 -0.625000
v 0.014142 0.212132 0.625000
v 0.000000 0.300000 0.625000
v -0.014142 0.212132 0.625000
v -0.020000 0.000000 0.625000
v -0.014142 -0.212132 0.625000
v 0.000000 -0.300000 0.625000
v 0.014142 -0.212132 0.625000
v 0.020000 0.000000 0.625000
vt 0.383445 0.941914
vt 0.383445 0.473893
vt 0.523852 0.473893
vt 0.523852 0.941914
vt 0.236904 0.941914
vt 0.236904 0.473893
vt 0.377310 0.473893
vt 0.377310 0.941914
vt 0.081888 0.001880
vt 0.095596 0.001880
vt 0.095596 0.586906
vt 0.081888 0.586906
vt 0.048794 0.001880
vt 0.048794 0.586906
vt 0.015700 0.001880
vt 0.015700 0.586906
vt 0.001992 0.001880
vt 0.001992 0.586906
vt 0.197136 0.586906
vt 0.183428 0.586906
vt 0.183428 0.001880
vt 0.197136 0.001880
vt 0.150334 0.586906
vt 0.150334 0.001880
vt 0.117240 0.586906
vt 0.117240 0.001880
vt 0.103532 0.586906
vt 0.103532 0.001880
vt 0.352998 0.001880
vt 0.821019 0.001880
vt 0.821019 0.469901
vt 0.352998 0.469901
vt 0.529987 0.473893
vt 0.998008 0.473893
vt 0.998008 0.941914
vt 0.529987 0.941914
vt 0.204878 0.469901
vt 0.204878 0.001880
vt 0.345284 0.001880
vt 0.345284 0.469901
vt 0.828543 0.469901
vt 0.828543 0.001880
vt 0.968949 0.001880
vt 0.968949 0.469901
vt 0.221408 0.567497
vt 0.214789 0.553789
vt 0.214789 0.487601
vt 0.221408 0.473893
vt 0.212048 0.520695
vt 0.228027 0.553789
vt 0.228027 0.487601
vt 0.230768 0.520695
vt 0.196552 0.590898
vt 0.203171 0.604606
vt 0.203171 0.670794
vt 0.196552 0.684502
vt 0.205912 0.637700
vt 0.189933 0.604606
vt 0.189933 0.670794
vt 0.187191 0.637700
vn 0.000000 0.000000 1.000000
vn 0.000000 0.000000 1.000000
vn 0.000000 0.000000 1.000000
vn 0.000000 0.000000 1.000000
vn 0.000000 1.000000 0.000000
vn 0.000000 1.000000 0.000000
vn 0.000000 1.000000 0.000000
vn 0.000000 1.000000 0.000000
vn 0.000000 0.000000 -1.000000
vn 0.000000 0.000000 -1.000000
vn 0.000000 0.000000 -1.000000
vn 0.000000 0.000000 -1.000000
vn 0.000000 -1.000000 0.000000
vn 0.000000 -1.000000 0.000000
vn 0.000000 -1.000000 0.000000
vn 0.000000 -1.000000 0.000000
vn 1.000000 0.000000 0.000000
vn 1.000000 0.000000 0.000000
vn 1.000000 0.000000 0.000000
vn 1.000000 0.000000 0.000000
vn -1.000000 0.000000 0.000000
vn -1.000000 0.000000 0.000000
vn -1.000000 0.000000 0.000000
vn -1.000000 0.000000 0.000000
vn 0.987294 0.158903 0.000000
vn 0.987294 0.158903 0.000000
vn 0.987294 0.158903 0.000000
vn 0.987294 0.158903 0.000000
vn -0.987294 0.158903 0.000000
vn -0.987294 0.158903 0.000000
vn -0.987294 0.158903 0.000000
vn -0.987294 0.158903 0.000000
vn -0.999619 0.027604 0.000000
vn -0.999619 0.027604 0.000000
vn -0.999619 0.027604 0.000000
vn -0.999619 0.027604 0.000000
vn -0.999619 -0.027604 0.000000
vn -0.999619 -0.027604 0.000000
vn -0.999619 -0.027604 0.000000
vn -0.999619 -0.027604 0.000000
vn -0.987294 -0.158903 0.000000
vn -0.987294 -0.158903 0.000000
vn -0.987294 -0.158903 0.000000
vn -0.987294 -0.158903 0.000000
vn 0.987294 -0.158903 0.000000
vn 0.987294 -0.158903 0.000000
vn 0.987294 -0.158903 0.000000
vn 0.987294 -0.158903 0.000000
vn 0.999619 -0.027604 0.000000
vn 0.999619 -0.027604 0.000000
vn 0.999619 -0.027604 0.000000
vn 0.999619 -0.027604 0.000000
vn 0.999619 0.027604 0.000000
vn 0.999619 0.027604 0.000000
vn 0.999619 0.027604 0.000000
vn 0.999619 0.027604 0.000000
vn -0.000003 0.000000 1.000000
vn -0.000003 0.000000 1.000000
vn -0.000003 0.000000 1.000000
vn -0.000003 0.000000 1.000000
vn 0.000006 0.000000 1.000000
vn 0.000006 0.000000 1.000000
vn 0.000006 0.000000 1.000000
vn 0.000006 0.000000 1.000000
vn -0.000018 0.000000 1.000000
vn -0.000018 0.000000 1.000000
vn -0.000018 0.000000 1.000000
vn 0.000000 0.000000 1.000000
vn 0.000000 0.000000 1.000000
vn 0.000000 0.000000 1.000000
vn 0.000003 0.000000 -1.000000
vn 0.000003 0.000000 -1.000000
vn 0.000003 0.000000 -1.000000
vn 0.000003 0.000000 -1.000000
vn -0.000018 0.000000 -1.000000
vn -0.000018 0.000000 -1.000000
vn -0.000018 0.000000 -1.000000
vn -0.000006 0.000000 -1.000000
vn -0.000006 0.000000 -1.000000
vn -0.000006 0.000000 -1.000000
vn -0.000006 0.000000 -1.000000
vn 0.000000 0.000000 -1.000000
vn 0.000000 0.000000 -1.000000
vn 0.000000 0.000000 -1.000000
s off
g RotatorPlatform
usemtl lambert10SG
f 1/37/1 2/38/2 4/39/3 3/40/4
f 3/29/5 4/30/6 6/31/7 5/32/8
f 5/41/9 6/42/10 8/43/11 7/44/12
f 7/33/13 8/34/14 2/35/15 1/36/16
f 2/1/17 8/2/18 6/3/19 4/4/20
f 7/5/21 1/6/22 3/7/23 5/8/24
f 9/9/25 10/10/26 18/11/27 17/12/28
f 10/19/29 11/20/30 19/21/31 18/22/32
f 11/20/33 12/23/34 20/24/35 19/21/36
f 12/23/37 13/25/38 21/26/39 20/24/40
f 13/25/41 14/27/42 22/28/43 21/26/44
f 14/17/45 15/15/46 23/16/47 22/18/48
f 15/15/49 16/13/50 24/14/51 23/16/52
f 16/13/53 9/9/54 17/12/55 24/14/56
f 18/45/57 19/46/58 21/47/59 22/48/60
f 17/50/61 18/45/62 22/48/63 23/51/64
f 24/52/65 17/50/66 23/51/67
f 20/49/68 21/47/69 19/46/70
f 10/53/71 9/54/72 15/55/73 14/56/74
f 16/57/75 15/55/76 9/54/77
f 11/58/78 10/53/79 14/56/80 13/59/81
f 12/60/82 11/58/83 13/59/84
